<svg width="16" height="20" viewBox="0 0 16 20" fill="none" xmlns="http://www.w3.org/2000/svg">
<path d="M13.1239 9.28683C13.1239 8.10261 12.6535 6.96689 11.8161 6.12952C10.9788 5.29215 9.84306 4.82172 8.65883 4.82172C7.47461 4.82172 6.33889 5.29215 5.50152 6.12952C4.66415 6.96689 4.19372 8.10261 4.19372 9.28683V15.2403H13.1239V9.28683ZM14.6123 15.7367L14.91 16.1333C14.9515 16.1886 14.9767 16.2544 14.9829 16.3232C14.9891 16.392 14.976 16.4612 14.9451 16.523C14.9142 16.5848 14.8667 16.6368 14.8079 16.6731C14.7492 16.7094 14.6814 16.7287 14.6123 16.7287H2.70535C2.63624 16.7287 2.56851 16.7094 2.50972 16.6731C2.45094 16.6368 2.40344 16.5848 2.37253 16.523C2.34163 16.4612 2.32855 16.392 2.33476 16.3232C2.34096 16.2544 2.36621 16.1886 2.40767 16.1333L2.70535 15.7367V9.28683C2.70535 7.70787 3.33259 6.19358 4.44908 5.07708C5.56558 3.96058 7.07987 3.33334 8.65883 3.33334C10.2378 3.33334 11.7521 3.96058 12.8686 5.07708C13.9851 6.19358 14.6123 7.70787 14.6123 9.28683V15.7367ZM6.79837 17.4729H10.5193C10.5193 17.9663 10.3233 18.4395 9.97438 18.7884C9.62548 19.1373 9.15226 19.3333 8.65883 19.3333C8.16541 19.3333 7.69219 19.1373 7.34329 18.7884C6.99438 18.4395 6.79837 17.9663 6.79837 17.4729V17.4729Z" fill="#777777"/>
<circle cx="12" cy="4" r="4" fill="#ED0102"/>
</svg>
