<svg width="30" height="29" viewBox="0 0 30 29" fill="none" xmlns="http://www.w3.org/2000/svg">
<rect x="0.25" y="4.25" width="29.5" height="24.5" rx="3.75" fill="#E1605B" fill-opacity="0.54" stroke="#E1605B" stroke-width="0.5"/>
<path d="M4 4.25H26C28.0711 4.25 29.75 5.92893 29.75 8V8.75H0.25V8C0.25 5.92893 1.92893 4.25 4 4.25Z" stroke="#E1605B" stroke-width="0.5"/>
<circle cx="15" cy="18" r="5" fill="#E1605B"/>
<rect width="1" height="5" transform="matrix(-1 0 0 1 23 0)" fill="#E1605B"/>
<rect width="1" height="5" transform="matrix(-1 0 0 1 9 0)" fill="#E1605B"/>
<path d="M15.3975 19.7852C15.5179 19.9593 15.6571 20.0415 15.8149 20.0317C15.9338 20.0252 16.0306 19.9707 16.1055 19.8682C16.1868 19.7542 16.2056 19.6313 16.1616 19.4995C16.1453 19.4539 16.1217 19.41 16.0908 19.3677L15.1851 18.1836L16.0811 17.0776C16.1641 16.9686 16.1812 16.849 16.1323 16.7188C16.0933 16.613 16.0249 16.5389 15.9272 16.4966C15.7938 16.438 15.6644 16.4648 15.5391 16.5771C15.4935 16.6162 15.4512 16.665 15.4121 16.7236L14.7432 17.6074L14.0229 16.665C13.953 16.5641 13.8716 16.4958 13.7788 16.46C13.686 16.4242 13.6022 16.4217 13.5273 16.4526C13.4525 16.4819 13.3882 16.5283 13.3345 16.5918C13.2808 16.6536 13.2547 16.735 13.2563 16.8359C13.258 16.9368 13.293 17.0378 13.3613 17.1387L14.189 18.2153L13.3174 19.2456C13.1855 19.4181 13.1473 19.5817 13.2026 19.7363C13.2384 19.8421 13.3076 19.9146 13.4102 19.9536C13.5371 20.0008 13.6592 19.9788 13.7764 19.8877C13.8203 19.8551 13.8602 19.8136 13.896 19.7632L14.6455 18.8086L15.3975 19.7852Z" fill="white"/>
</svg>
