<svg width="37" height="37" viewBox="0 0 37 37" fill="none" xmlns="http://www.w3.org/2000/svg">
<circle cx="18.5" cy="18.5" r="18.5" fill="#ED0102" fill-opacity="0.12"/>
<path d="M13.76 25C13.3733 25 13.0667 24.8933 12.84 24.68C12.6267 24.4667 12.52 24.1667 12.52 23.78V12.12C12.52 11.7333 12.6267 11.4333 12.84 11.22C13.0667 11.0067 13.3733 10.9 13.76 10.9H17.72C20.0267 10.9 21.8133 11.52 23.08 12.76C24.36 13.9867 25 15.7133 25 17.94C25 20.18 24.36 21.92 23.08 23.16C21.8133 24.3867 20.0267 25 17.72 25H13.76ZM17.56 22.9C20.8 22.9 22.42 21.2467 22.42 17.94C22.42 14.6467 20.8 13 17.56 13H15.1V22.9H17.56Z" fill="#ED0102"/>
</svg>
